<svg width="148" height="119" viewBox="0 0 148 119" fill="none" xmlns="http://www.w3.org/2000/svg">
<g clip-path="url(#clip0_978_616)">
<path d="M48.1004 81.4C47.5477 81.4 46.995 81.4809 46.4678 81.6521C43.4707 82.6256 40.3188 83.25 37.0004 83.25C33.6819 83.25 30.53 82.6256 27.5307 81.6521C27.0034 81.4809 26.4531 81.4 25.9004 81.4C11.549 81.4 -0.0759389 93.0735 0.000373579 107.443C0.0327486 113.516 5.02544 118.4 11.1004 118.4H62.9004C68.9753 118.4 73.968 113.516 74.0004 107.443C74.0767 93.0735 62.4517 81.4 48.1004 81.4ZM37.0004 74C49.2612 74 59.2004 64.0609 59.2004 51.8C59.2004 39.5391 49.2612 29.6 37.0004 29.6C24.7395 29.6 14.8004 39.5391 14.8004 51.8C14.8004 64.0609 24.7395 74 37.0004 74ZM136.9 0H48.1004C41.9792 0 37.0004 5.14531 37.0004 11.4677V22.2C42.4162 22.2 47.4297 23.7679 51.8004 26.3163V14.8H133.2V81.4H118.4V66.6H88.8004V81.4H71.1699C75.5868 85.2596 78.8289 90.3563 80.3482 96.2H136.9C143.022 96.2 148 91.0547 148 84.7323V11.4677C148 5.14531 143.022 0 136.9 0Z" fill="black"/>
</g>
<defs>
<clipPath id="clip0_978_616">
<rect width="148" height="118.4" fill="white"/>
</clipPath>
</defs>
</svg>
