<svg width="148" height="148" viewBox="0 0 148 148" fill="none" xmlns="http://www.w3.org/2000/svg">
<path d="M129.5 71.7598C132.391 73.735 134.968 75.9753 137.232 78.4805C139.497 80.9857 141.448 83.7318 143.086 86.7188C144.724 89.7057 145.928 92.8613 146.699 96.1855C147.47 99.5098 147.904 102.906 148 106.375C148 112.108 146.916 117.504 144.748 122.562C142.58 127.621 139.593 132.029 135.787 135.787C131.981 139.545 127.573 142.508 122.562 144.676C117.552 146.844 112.156 147.952 106.375 148C101.991 148 97.7513 147.35 93.6562 146.049C89.5612 144.748 85.8034 142.869 82.3828 140.412C78.9622 137.955 75.9271 135.016 73.2773 131.596C70.6276 128.175 68.5801 124.393 67.1348 120.25H9.25V9.25H27.75V0H37V9.25H101.75V0H111V9.25H129.5V71.7598ZM18.5 18.5V37H120.25V18.5H111V27.75H101.75V18.5H37V27.75H27.75V18.5H18.5ZM64.9668 111C64.8223 109.507 64.75 107.965 64.75 106.375C64.75 102.232 65.3281 98.209 66.4844 94.3066C67.6406 90.4043 69.3991 86.7188 71.7598 83.25H64.75V74H74V80.2148C75.9753 77.7578 78.1673 75.5898 80.5762 73.7109C82.985 71.832 85.5866 70.2181 88.3809 68.8691C91.1751 67.5202 94.0898 66.5085 97.125 65.834C100.16 65.1595 103.243 64.7982 106.375 64.75C111.193 64.75 115.818 65.5449 120.25 67.1348V46.25H18.5V111H64.9668ZM106.375 138.75C110.855 138.75 115.047 137.907 118.949 136.221C122.852 134.535 126.272 132.222 129.211 129.283C132.15 126.344 134.462 122.924 136.148 119.021C137.835 115.119 138.702 110.904 138.75 106.375C138.75 101.895 137.907 97.7031 136.221 93.8008C134.535 89.8984 132.222 86.4779 129.283 83.5391C126.344 80.6003 122.924 78.2878 119.021 76.6016C115.119 74.9154 110.904 74.0482 106.375 74C101.895 74 97.7031 74.8431 93.8008 76.5293C89.8984 78.2155 86.4779 80.528 83.5391 83.4668C80.6003 86.4056 78.2878 89.8262 76.6016 93.7285C74.9154 97.6309 74.0482 101.846 74 106.375C74 110.855 74.8431 115.047 76.5293 118.949C78.2155 122.852 80.528 126.272 83.4668 129.211C86.4056 132.15 89.8262 134.462 93.7285 136.148C97.6309 137.835 101.846 138.702 106.375 138.75ZM111 101.75H124.875V111H101.75V83.25H111V101.75ZM27.75 74H37V83.25H27.75V74ZM46.25 74H55.5V83.25H46.25V74ZM46.25 55.5H55.5V64.75H46.25V55.5ZM27.75 92.5H37V101.75H27.75V92.5ZM46.25 92.5H55.5V101.75H46.25V92.5ZM74 64.75H64.75V55.5H74V64.75ZM92.5 64.75H83.25V55.5H92.5V64.75ZM111 64.75H101.75V55.5H111V64.75Z" fill="black"/>
</svg>
